<svg viewBox="0 0 32 32" width="32" height="32"
     xmlns="http://www.w3.org/2000/svg"
     style="fill-rule:evenodd;clip-rule:evenodd;stroke-linejoin:round;stroke-miterlimit:2;">
  <rect width="32" height="32" fill="#0d0f14"/>
  <svg x="2.5600" y="8.4753" width="26.8800" height="15.0495"
       viewBox="0 0 643 360">
    <g transform="matrix(1,0,0,1,-186.923,-332.237)">
        <g transform="matrix(1,0,0,1,0.586126,0.239307)">
            <g transform="matrix(0.998895,0,0,0.999824,27.9713,0.121719)">
                <g>
                    <path d="M443.9,332.079C443.9,332.079 300.135,332.361 216.691,332.525C201.277,332.555 186.507,338.708 175.637,349.627C164.766,360.546 158.688,375.335 158.741,390.735C158.972,457.575 159.347,566.664 159.577,633.357C159.687,665.292 185.612,691.132 217.577,691.167C300.525,691.258 443.443,691.416 443.443,691.416L443.443,607.146C443.443,607.146 341.268,606.993 282.783,606.905C260.732,606.872 242.858,589.036 242.799,567.006C242.714,535.588 242.597,491.966 242.513,460.467C242.484,449.831 246.696,439.622 254.217,432.094C261.739,424.567 271.951,420.342 282.597,420.353C341.391,420.411 443.933,420.513 443.933,420.513L443.9,332.079Z" style="fill:rgb(255,0,242);"/>
                </g>
            </g>
            <g transform="matrix(1,0,0,1,-35.7761,0)">
                <path d="M579.191,450.449L579.19,331.998C579.19,331.998 722.96,332.175 806.308,332.278C838.332,332.318 864.263,358.303 864.237,390.327C864.181,457.164 864.089,566.366 864.033,633.147C864.007,665.118 838.113,691.038 806.142,691.098C723.021,691.254 579.682,691.523 579.682,691.523L579.676,572.823L670.114,572.823L670.114,607.261C670.114,607.261 709.182,607.366 740.963,607.452C751.598,607.481 761.806,603.273 769.332,595.76C776.858,588.246 781.082,578.044 781.071,567.409C781.037,535.883 780.99,492.204 780.957,460.746C780.933,438.7 763.075,420.829 741.029,420.789C709.095,420.732 669.614,420.661 669.614,420.661L669.614,450.456L579.191,450.449Z" style="fill:rgb(0,148,255);"/>
            </g>
        </g>
    </g>
  </svg>
</svg>